<!-- instagram.svg -->
<svg xmlns="http://www.w3.org/2000/svg" viewBox="0 0 512 512" role="img" aria-label="Instagram">
  <title>Instagram</title>
  <path fill="currentColor" d="M349.33 69.33H162.67C108.27 69.33 69.33 108.27 69.33 162.67v186.67C69.33 403.73 108.27 442.67 162.67 442.67h186.67c54.4 0 93.34-38.94 93.34-93.33V162.67c0-54.4-38.94-93.34-93.35-93.34zM256 346.67c-50.59 0-90.67-40.08-90.67-90.67S205.41 165.33 256 165.33 346.67 205.41 346.67 256 306.59 346.67 256 346.67zm106.67-196.9a21.33 21.33 0 1 1-21.33-21.33 21.33 21.33 0 0 1 21.33 21.33zM256 203.33a52.67 52.67 0 1 0 52.67 52.67A52.69 52.69 0 0 0 256 203.33z"></path>
</svg>
